<svg width="30" height="35" viewBox="0 0 30 35" fill="none" xmlns="http://www.w3.org/2000/svg">
<path fill-rule="evenodd" clip-rule="evenodd" d="M14.865 0C15.5367 0 16.0812 0.544513 16.0812 1.21622V19.9016L22.1132 13.8697C22.5881 13.3948 23.3581 13.3948 23.833 13.8697C24.3081 14.3447 24.3081 15.1148 23.833 15.5897L15.725 23.6978C15.25 24.1728 14.48 24.1728 14.005 23.6978L5.89689 15.5897C5.42192 15.1148 5.42192 14.3447 5.89689 13.8697C6.37187 13.3948 7.14192 13.3948 7.61689 13.8697L13.6488 19.9016V1.21622C13.6488 0.544513 14.1933 0 14.865 0ZM1.35135 24.1892C2.09768 24.1892 2.7027 24.7944 2.7027 25.5406V29.5946C2.7027 31.0917 3.90716 32.2973 5.39554 32.2973H24.3276C25.8187 32.2973 27.027 31.0887 27.027 29.5946V25.5406C27.027 24.7944 27.6322 24.1892 28.3784 24.1892C29.1246 24.1892 29.7297 24.7944 29.7297 25.5406V29.5946C29.7297 32.5787 27.3141 35 24.3276 35H5.39554C2.40592 35 0 32.5757 0 29.5946V25.5406C0 24.7944 0.605027 24.1892 1.35135 24.1892Z" fill="white"/>
</svg>
